<svg width="28" height="28" viewBox="0 0 28 28" xmlns="http://www.w3.org/2000/svg"><title>Shape</title><path d="M22.4 22.4c-1.554 0-2.8 1.246-2.8 2.8 0 1.546 1.254 2.8 2.8 2.8 1.546 0 2.8-1.254 2.8-2.8 0-1.554-1.26-2.8-2.8-2.8zM0 0v2.8h2.8l5.04 10.626-1.904 3.43c-.21.392-.336.854-.336 1.344 0 1.546 1.254 2.8 2.8 2.8h16.8v-2.8H8.988c-.193 0-.35-.157-.35-.35 0-.07.014-.126.042-.168L9.94 15.4h10.43c1.05 0 1.974-.588 2.45-1.442L27.832 4.9c.098-.224.168-.462.168-.7 0-.773-.627-1.4-1.4-1.4H5.894L4.578 0H0zm8.4 22.4c-1.554 0-2.8 1.246-2.8 2.8 0 1.546 1.254 2.8 2.8 2.8 1.546 0 2.8-1.254 2.8-2.8 0-1.554-1.26-2.8-2.8-2.8z" fill="#626F77" fill-rule="evenodd"/></svg>