<svg width="13" height="16" viewBox="0 0 13 16" xmlns="http://www.w3.org/2000/svg"><title>Fill 22</title><path d="M6.2 12.434c.44.044.763.437.718.877-.044.44-.438.762-.88.718-.44-.045-.76-.438-.717-.878.045-.44.44-.76.88-.716zm6.785-5.984c-6.444.002-11.04 2.444-8.943 8.794v.003c6.335 2.185 8.848-2.366 8.943-8.795V6.45zM.373.023c4.33 0 7.42 1.642 6.01 5.91C2.126 7.404.437 4.344.373.024zm4.56 4.02c-.296.03-.512.294-.483.59.03.296.295.51.59.48.297-.028.513-.292.484-.588-.03-.296-.295-.51-.59-.482z" fill="#626F77" fill-rule="evenodd"/></svg>