<svg width="16" height="17" viewBox="0 0 16 17" xmlns="http://www.w3.org/2000/svg"><title>sale</title><g fill="none" fill-rule="evenodd"><ellipse fill="#FFF" cx="8" cy="8.947" rx="5.333" ry="5.368"/><path d="M12.836 2.02l.444 2.733 2.553 1.268-1.288 2.48 1.295 2.48-2.575 1.267-.443 2.734-2.83-.43-2.014 1.954-2.022-1.983-2.807.454-.452-2.755L.16 10.957l1.295-2.48L.167 6.022 2.72 4.74l.444-2.714 2.814.453L8 .49l2.015 1.96 2.82-.43zM6.182 4.957c-.603 0-1.09.476-1.09 1.063 0 .588.487 1.063 1.09 1.063.602 0 1.09-.475 1.09-1.062 0-.586-.488-1.062-1.09-1.062zm3.636 4.96c-.602 0-1.09.474-1.09 1.06 0 .588.488 1.064 1.09 1.064.603 0 1.09-.476 1.09-1.063 0-.588-.487-1.063-1.09-1.063zm-4.43 2.124l6.248-6.085-1.025-1-6.246 6.086 1.025 1z" fill="#EB008B"/></g></svg>