<?xml version="1.0" encoding="UTF-8"?><!DOCTYPE svg PUBLIC "-//W3C//DTD SVG 1.1//EN" "http://www.w3.org/Graphics/SVG/1.1/DTD/svg11.dtd"><svg xmlns="http://www.w3.org/2000/svg" xmlns:xlink="http://www.w3.org/1999/xlink"><defs>
        <path id="SVGID_1_" d="M-118.8 308.4c5.8 0 10.5-4.7 10.5-10.5s-4.7-10.5-10.5-10.5-10.5 4.7-10.5 10.5 4.7 10.5 10.5 10.5zm0-1c-5.2 0-9.5-4.3-9.5-9.5s4.3-9.5 9.5-9.5 9.5 4.3 9.5 9.5-4.3 9.5-9.5 9.5z"/>
    
        <path id="SVGID_3_" d="M-115.3 296h3.4v.7c-.3.3-.5.6-.7.9-.2.3-.4.6-.5 1-.2.3-.3.7-.4 1.1-.1.4-.2.8-.2 1.2h-.9c0-.4.1-.8.2-1.1.1-.4.2-.7.4-1.1.2-.4.4-.7.6-1 .2-.3.5-.6.7-.9h-2.5v-.8zm-.9-.2h.8l-2 5.2h-.8l2-5.2zm-2.1 3.9h-.6v1.2h-.8v-1.2h-2.1v-.7l2.1-2.9h.8v3.1h.6v.5zm-2.9-.6h1.5V297l-1.5 2.1zm-1 1.8h-3.3c0-.4.1-.8.3-1.1.2-.3.5-.6.8-.8.2-.1.3-.2.5-.3.2-.1.3-.2.5-.4l.4-.4c.1-.1.1-.3.1-.5v-.3c0-.1-.1-.2-.1-.3-.1-.1-.1-.2-.3-.2-.1-.1-.2-.1-.4-.1s-.3 0-.4.1c-.1.1-.2.1-.3.3-.1.1-.1.2-.1.4s0 .3-.1.5h-.8c0-.3 0-.5.1-.8l.3-.6c.1-.2.3-.3.5-.4s.4-.1.7-.1c.3 0 .5 0 .7.1.2.1.4.2.5.4.1.1.2.3.3.5.1.2.1.3.1.5s0 .4-.1.5c-.1.2-.1.3-.2.4s-.2.3-.3.4c-.1.1-.3.2-.4.3-.1.1-.3.2-.4.3-.1.1-.3.2-.4.3l-.3.3c-.1.1-.1.2-.2.3h2.4v.7z"/>
    
        <path id="SVGID_1_" d="M-108.7 298c0-5.6-4.5-10.1-10.1-10.1s-10.1 4.5-10.1 10.1 4.5 10.1 10.1 10.1 10.1-4.5 10.1-10.1zm-1 0c0 5-4.1 9.1-9.1 9.1s-9.1-4.1-9.1-9.1 4.1-9.1 9.1-9.1 9.1 4.1 9.1 9.1z"/>
    
        <path id="SVGID_3_" d="M-118.8 307.6c2.2 0 4.1-.7 5.7-1.9-.8-2.8-3.1-4.8-5.7-4.8s-4.9 2-5.7 4.8c1.5 1.2 3.5 1.9 5.7 1.9"/>
    
            <path id="SVGID_5_" d="M-115.6 296c0 1.8-1.4 3.2-3.2 3.2-1.8 0-3.2-1.4-3.2-3.2s1.4-3.2 3.2-3.2c1.7 0 3.2 1.4 3.2 3.2"/>
        
        <path id="SVGID_1_" d="M-117.8 300.6l-.7.3.9-4.8c.1-.5-.4-1-1-.7l-1.8 1c-.3.2-.4.6-.3.9s.6.4.9.3l.4-.2-.9 4.6c-.1.4.3.8.7.8.1 0 .2 0 .3-.1l1.9-.8c.4-.1.5-.5.4-.9-.1-.4-.5-.6-.8-.4"/>
    
        <path id="SVGID_3_" d="M-118.3 294.1c.5 0 1-.4 1-1 0-.5-.4-1-1-1-.5 0-1 .4-1 1s.5 1 1 1"/>
    
            <path id="SVGID_5_" d="M-108.6 297.9c0-5.6-4.5-10.1-10.1-10.1s-10.1 4.5-10.1 10.1 4.5 10.1 10.1 10.1c5.5.1 10.1-4.5 10.1-10.1zm-1 0c0 5-4.1 9.1-9.1 9.1s-9.1-4.1-9.1-9.1 4.1-9.1 9.1-9.1 9.1 4.1 9.1 9.1z"/>
        
        <path id="a" d="M0 .05h163.968V35H0"/>
        <path id="c" d="M0 .05h163.968V35H0V.05z"/>
        <path id="e" d="M0 .05h163.968V35H0V.05z"/>
    
        <path id="SVGID_1_" d="M-114.3 297c-4.6 0-7.9 1.8-6.4 6.3 4.5 1.6 6.3-1.7 6.4-6.3zm-4.9 4.3c.3 0 .5.3.5.6s-.3.5-.6.5-.5-.3-.5-.6.3-.5.6-.5z"/>
    
        <path id="SVGID_3_" d="M-123.3 292.4c3.1 0 5.3 1.2 4.3 4.2-3.1 1.1-4.3-1.1-4.3-4.2zm3.2 2.9c-.2 0-.4.2-.3.4 0 .2.2.4.4.3s.4-.2.3-.4c0-.2-.2-.3-.4-.3z"/>
    
            <path id="SVGID_5_" d="M-108.3 298c0-5.8-4.7-10.5-10.5-10.5s-10.5 4.7-10.5 10.5 4.7 10.5 10.5 10.5 10.5-4.7 10.5-10.5zm-1 0c0 5.2-4.3 9.5-9.5 9.5s-9.5-4.3-9.5-9.5 4.3-9.5 9.5-9.5 9.5 4.3 9.5 9.5z"/>
        
        <circle id="a" cx="17" cy="17" r="17"/>
    </defs><symbol id="icon-24_7" viewBox="-129.3 287.4 21 21">
    <style>
        .st0{clip-path:url(#SVGID_2_);fill:#7f7f7f}.st1{clip-path:url(#SVGID_4_);fill:#fff}
    </style>
    
    <clipPath id="SVGID_2_">
        <use xlink:href="#SVGID_1_" overflow="visible"/>
    </clipPath>
    <path class="st0" d="M-134.3 282.4h31v31h-31z"/>
    
    <clipPath id="SVGID_4_">
        <use xlink:href="#SVGID_3_" overflow="visible"/>
    </clipPath>
    <path class="st1" d="M-130.6 290.8h23.6V306h-23.6z"/>
</symbol><symbol id="icon-account" viewBox="-128.9 287.9 20.2 20.2">
    <style>
        .st0{clip-path:url(#SVGID_2_);fill:gray}.st1,.st2{clip-path:url(#SVGID_4_);fill:#fefefe}.st2{clip-path:url(#SVGID_6_)}
    </style>
    
    <clipPath id="SVGID_2_">
        <use xlink:href="#SVGID_1_" overflow="visible"/>
    </clipPath>
    <path class="st0" d="M-133.9 282.9h30.2v30.2h-30.2z"/>
    
    <clipPath id="SVGID_4_">
        <use xlink:href="#SVGID_3_" overflow="visible"/>
    </clipPath>
    <path class="st1" d="M-129.6 295.9h21.5v16.7h-21.5z"/>
    <g>
        
        <clipPath id="SVGID_6_">
            <use xlink:href="#SVGID_5_" overflow="visible"/>
        </clipPath>
        <path class="st2" d="M-127 287.8h16.4v16.4H-127z"/>
    </g>
</symbol><symbol id="icon-cart_icon" viewBox="0 0 28 28">
    <title>
        Shape
    </title>
    <path d="M22.4 22.4a2.79 2.79 0 0 0-2.8 2.8 2.8 2.8 0 1 0 2.8-2.8zM0 0v2.8h2.8l5.04 10.626-1.904 3.43c-.21.392-.336.854-.336 1.344A2.8 2.8 0 0 0 8.4 21h16.8v-2.8H8.988a.35.35 0 0 1-.35-.35c0-.07.014-.126.042-.168L9.94 15.4h10.43c1.05 0 1.974-.588 2.45-1.442L27.832 4.9c.098-.224.168-.462.168-.7a1.4 1.4 0 0 0-1.4-1.4H5.894L4.578 0H0zm8.4 22.4a2.79 2.79 0 0 0-2.8 2.8 2.8 2.8 0 1 0 2.8-2.8z" fill-rule="evenodd"/>
</symbol><symbol id="icon-facebook" viewBox="0 0 10 19">
    <title>
        facebook
    </title>
    <path d="M9.766.157v2.946H8.014c-.64 0-1.071.134-1.295.402-.223.268-.335.67-.335 1.205v2.11h3.27l-.435 3.303H6.384v8.471H2.97v-8.47H.123V6.82H2.97V4.387c0-1.384.387-2.457 1.161-3.22C4.904.404 5.934.023 7.222.023c1.093 0 1.941.045 2.544.134z" fill-rule="evenodd"/>
</symbol><symbol id="icon-global_icon" viewBox="0 0 14 14">
    <title>
        Shape
    </title>
    <path d="M11.13 10.773A1.404 1.404 0 0 0 9.8 9.8h-.7V7.7a.7.7 0 0 0-.7-.7H4.2V5.6h1.4a.7.7 0 0 0 .7-.7V3.5h1.4a1.4 1.4 0 0 0 1.4-1.4v-.287a5.59 5.59 0 0 1 2.03 8.96zM6.3 12.55A5.588 5.588 0 0 1 1.4 7c0-.434.056-.854.147-1.253L4.9 9.1v.7a1.4 1.4 0 0 0 1.4 1.4v1.35zM7 0a7 7 0 1 0 0 14A7 7 0 0 0 7 0z" fill-rule="evenodd"/>
</symbol><symbol id="icon-global_icon_active" viewBox="0 0 14 14">
    <title>
        Shape
    </title>
    <path d="M11.13 10.773A1.404 1.404 0 0 0 9.8 9.8h-.7V7.7a.7.7 0 0 0-.7-.7H4.2V5.6h1.4a.7.7 0 0 0 .7-.7V3.5h1.4a1.4 1.4 0 0 0 1.4-1.4v-.287a5.59 5.59 0 0 1 2.03 8.96zM6.3 12.55A5.588 5.588 0 0 1 1.4 7c0-.434.056-.854.147-1.253L4.9 9.1v.7a1.4 1.4 0 0 0 1.4 1.4v1.35zM7 0a7 7 0 1 0 0 14A7 7 0 0 0 7 0z" fill-rule="evenodd"/>
</symbol><symbol id="icon-help" viewBox="-128.9 287.8 20.2 20.2">
    <style>
        .st0,.st1{clip-path:url(#SVGID_2_);fill:#fefefe}.st1{clip-path:url(#SVGID_4_)}.st2{clip-path:url(#SVGID_6_);fill:gray}
    </style>
    
    <clipPath id="SVGID_2_">
        <use xlink:href="#SVGID_1_" overflow="visible"/>
    </clipPath>
    <path class="st0" d="M-125.7 290.3h13.8v17.4h-13.8z"/>
    
    <clipPath id="SVGID_4_">
        <use xlink:href="#SVGID_3_" overflow="visible"/>
    </clipPath>
    <path class="st1" d="M-124.3 287.1h11.9V299h-11.9z"/>
    <g>
        
        <clipPath id="SVGID_6_">
            <use xlink:href="#SVGID_5_" overflow="visible"/>
        </clipPath>
        <path class="st2" d="M-133.9 282.8h30.2V313h-30.2z"/>
    </g>
</symbol><symbol id="icon-login17" viewBox="0 0 95.667 95.667">
    <path d="M39.173 72.344L78.62 49.567a1.998 1.998 0 0 0 0-3.463l-39.447-22.78a2 2 0 0 0-3 1.732V35.66H2.12a2 2 0 0 0-2 2v20.345a2 2 0 0 0 2 2h34.054V70.61a1.997 1.997 0 0 0 2 2c.345 0 .69-.09 1-.266z"/>
    <path d="M80.775 0h-40.75a2 2 0 0 0-2 2v6a2 2 0 0 0 2 2h40.75c2.632 0 4.77 2.14 4.77 4.77v66.126c0 2.63-2.14 4.77-4.77 4.77h-40.75a2 2 0 0 0-2 2v6a2 2 0 0 0 2 2h40.75c8.146 0 14.77-6.626 14.77-14.77V14.772C95.546 6.627 88.92 0 80.776 0z"/>
</symbol><symbol id="icon-logo" viewBox="0 0 164 35">
    <title>
        Page 1
    </title>
    
    <g fill-rule="evenodd">
        <mask id="b">
            <use xlink:href="#a"/>
        </mask>
        <path d="M2.526 22.815V34.58H.458v-9.17c0-1.45.113-3.057-.458-3.902 2.36-1.108 7.395-1.776 9.488.366 4.095-2.76 9.808-1.07 9.745 3.113v9.594h-2.026v-9.21c-.002-1.214-.68-2.008-1.434-2.472-1.452-.896-3.99-.24-5.19.596.156.793.287 1.655.288 2.56l.01 8.527H8.813v-9.42c0-2.487-3.194-3.627-6.287-2.345" mask="url(#b)"/>
        <path d="M28.264 22.438c2.793 0 5.058 2.377 5.058 5.307 0 2.932-2.265 5.31-5.058 5.31-2.793 0-5.057-2.378-5.057-5.31 0-2.93 2.264-5.307 5.057-5.307m0-1.937c3.958 0 7.168 3.245 7.168 7.245s-3.21 7.245-7.168 7.245-7.168-3.244-7.168-7.245c0-4 3.21-7.244 7.168-7.244m19.108-4.606h2.043v17.3l.317.813c-1.91.805-3.414.98-5.857.98-3.958 0-7.167-3.244-7.167-7.244 0-4 3.21-7.245 7.167-7.245a7.07 7.07 0 0 1 3.497.92v-5.524zm-3.497 6.542c1.205 0 2.458.413 3.497 1.177v8.914c-1.062.42-2.335.53-3.497.523-2.792 0-5.057-2.376-5.057-5.307 0-2.93 2.265-5.308 5.057-5.308zm10.122.362v11.785H52.01V22.48l-.498-1.18c5.088-1.695 10.798-1.182 11.473 3.415.063.428.05.792.06 1.27v8.6H61.06v-8.68c.044-3.617-3.935-4.23-7.06-3.106m24.862-6.189h1.506v8.35l8.227-8.53 1.075 1.066-7.603 7.885 7.522 8.494-1.12 1.02-8.102-9.148v8.742h-1.506v-17.88zM70.54 27.095c1.944 0 3.52 1.326 3.52 2.96 0 1.636-1.576 2.962-3.52 2.962-1.942 0-3.518-1.326-3.518-2.96 0-1.636 1.576-2.962 3.52-2.962m-4.38-5.184l.84 1.723c2.65-1.61 7.397-2.466 6.954 2.863-.955-.772-2.222-1.242-3.61-1.242-2.973 0-5.383 2.15-5.383 4.802 0 2.652 2.41 4.802 5.382 4.802 1.398 0 2.67-.476 3.628-1.256.066.472.156.935.35 1.364l2.077-.606c-.388-1.147-.468-2.428-.505-3.727.05-1.71.1-3.115.15-4.825.178-5.976-6.324-6.512-9.884-3.897m37.366 11.433c.198-.497.605-.782.845-1.237 1.118 1.225 4.663 2.124 6.54.938.96-.605 1.472-2.222.59-3.283-1.922-2.308-7.865-1.354-7.592-5.843.145-2.395 2.46-3.48 4.815-3.467 1.612.01 3.223.555 4.253 1.463-.28.386-.53.803-.84 1.15-.736-.463-1.908-1.252-3.71-1.282-1.714-.03-3.91 1.515-2.535 3.543 1.42 1.765 5.05 1.43 6.79 3.283.725.783.877 1.77.83 2.577-.098 1.714-1.374 3.145-3.21 3.587-2.444.588-5.278 0-6.776-1.43m-11.093-10.32l-.59-1.28c1.916-1.618 6.6-1.682 8.35.073.862.817 1.224 2.198 1.224 3.833l.003 6.884c0 .784.045 1.42.294 1.963-.564.083-1.043.253-1.603.34a6.107 6.107 0 0 1-.21-1.578c-1.505 1.43-3.3 1.92-5.222 1.573-2.378-.427-3.86-1.76-4.144-4.303 0-1.103.123-2.1.786-3.034 1.017-1.436 2.903-2.2 4.993-2.084 1.554.09 2.764.833 3.628 1.792.125-1.612.092-3.036-.523-3.93-1.636-2.38-5.585-1.34-6.983-.25m2.155 3.886c-2.137.522-3.242 3.048-2.073 4.984 1.54 2.554 6.317 2.074 7.232-.53.31-.884.19-1.78-.2-2.625-.86-1.858-3.19-2.262-4.96-1.83m33.026-3.884l-.59-1.28c1.915-1.618 6.6-1.682 8.35.073.862.817 1.223 2.198 1.224 3.833l.004 6.884c0 .784.043 1.42.293 1.963-.565.083-1.043.253-1.603.34a6.107 6.107 0 0 1-.21-1.578c-1.506 1.43-3.302 1.92-5.223 1.573-2.377-.427-3.86-1.76-4.143-4.303 0-1.103.123-2.1.786-3.034 1.017-1.436 2.902-2.2 4.993-2.084 1.554.09 2.763.833 3.627 1.792.125-1.612.092-3.036-.523-3.93-1.637-2.38-5.586-1.34-6.983-.25m2.154 3.886c-2.135.522-3.24 3.048-2.07 4.984 1.54 2.554 6.316 2.074 7.23-.53.31-.884.192-1.78-.2-2.625-.86-1.858-3.187-2.262-4.96-1.83M116.84 16.413h1.442v4.48h5.344v1.267h-5.344v7.108c0 1.664.068 3.95 2.186 4.3 1.438.237 2.568-.354 3.437-1.16.363.36.674.68 1.038 1.038-1.496 1.47-3.673 1.747-4.918 1.42-1.693-.445-2.487-1.33-2.87-2.56-.338-1.094-.316-2.23-.316-3.333V22.16h-2.594v-1.267h2.593v-4.48z"/>
        <mask id="d">
            <use xlink:href="#c"/>
        </mask>
        <path d="M149.316 27.2a1.747 1.747 0 0 1 1.55 1.917 1.74 1.74 0 0 1-1.897 1.568 1.748 1.748 0 0 1-1.552-1.918 1.738 1.738 0 0 1 1.898-1.568zm14.652-13.09h-.002c-13.915.005-23.84 5.346-19.31 19.237v.005h.002c13.677 4.78 19.105-5.175 19.31-19.237v-.005z" mask="url(#d)"/>
        <g>
            <mask id="f">
                <use xlink:href="#e"/>
            </mask>
            <path d="M146.58 8.845a1.175 1.175 0 0 0-1.042 1.29 1.168 1.168 0 0 0 1.275 1.053 1.174 1.174 0 0 0 1.043-1.29 1.168 1.168 0 0 0-1.275-1.053zM136.735.05h.002c9.35.002 16.02 3.592 12.977 12.927l-.002.003c-9.19 3.213-12.838-3.477-12.976-12.928V.05z" mask="url(#f)"/>
        </g>
    </g>
</symbol><symbol id="icon-mhelp" viewBox="0 0 16 16">
    <title>
        Shape
    </title>
    <path d="M7.2 5.6h1.6V4H7.2v1.6zm.8 8.8A6.408 6.408 0 0 1 1.6 8c0-3.528 2.872-6.4 6.4-6.4 3.528 0 6.4 2.872 6.4 6.4 0 3.528-2.872 6.4-6.4 6.4zM8 0a8 8 0 1 0 0 16A8 8 0 0 0 8 0zm-.8 12h1.6V7.2H7.2V12z" fill-rule="evenodd"/>
</symbol><symbol id="icon-mk" viewBox="-129.3 287.5 21 21">
    <style>
        .st0{display:none;stroke:#000;stroke-miterlimit:10}.st1,.st2{clip-path:url(#SVGID_2_);fill:#fff}.st2{clip-path:url(#SVGID_4_)}.st3{clip-path:url(#SVGID_6_);fill:#7f7f7f}
    </style>
    <path class="st0" d="M-132.5 285.2h22v28h-22z"/>
    <title>
        Page 1
    </title>
    
    <clipPath id="SVGID_2_">
        <use xlink:href="#SVGID_1_" overflow="visible"/>
    </clipPath>
    <path class="st1" d="M-126.1 292h16.8v16.7h-16.8z"/>
    
    <clipPath id="SVGID_4_">
        <use xlink:href="#SVGID_3_" overflow="visible"/>
    </clipPath>
    <path class="st2" d="M-128.3 287.4h14.5v14.5h-14.5z"/>
    <g>
        
        <clipPath id="SVGID_6_">
            <use xlink:href="#SVGID_5_" overflow="visible"/>
        </clipPath>
        <path class="st3" d="M-134.3 282.5h31v31h-31z"/>
    </g>
</symbol><symbol id="icon-mk_card" viewBox="0 0 13 16">
    <title>
        Fill 22
    </title>
    <path d="M6.2 12.434a.801.801 0 1 1-.879.717c.045-.44.44-.76.88-.716zm6.785-5.984c-6.444.002-11.04 2.444-8.943 8.794v.003c6.335 2.185 8.848-2.366 8.943-8.795V6.45zM.373.023c4.33 0 7.42 1.642 6.01 5.91C2.126 7.404.437 4.344.373.024zm4.56 4.02a.538.538 0 0 0 .107 1.07.537.537 0 1 0-.106-1.07z" fill-rule="evenodd"/>
</symbol><symbol id="icon-new-pink" viewBox="0 0 22 22">
    <title>
        shutterstock_240011764 copy
    </title>
    <g fill-rule="evenodd">
        <path d="M11.444 1.028l1.798-.92a.972.972 0 0 1 1.263.338L15.6 2.142c.17.263.458.43.77.444l2.018.102c.5.025.9.424.924.924l.102 2.017c.015.312.18.6.444.77l1.696 1.095c.42.272.567.818.34 1.263l-.922 1.798a.973.973 0 0 0 0 .888l.92 1.798c.23.445.083.99-.338 1.263L19.858 15.6a.972.972 0 0 0-.444.77l-.102 2.018c-.025.5-.424.9-.924.924l-2.017.102a.972.972 0 0 0-.77.444l-1.095 1.697a.975.975 0 0 1-1.263.338l-1.798-.92a.967.967 0 0 0-.888 0l-1.798.92a.976.976 0 0 1-1.263-.338L6.4 19.858a.972.972 0 0 0-.77-.444l-2.018-.102a.973.973 0 0 1-.924-.924l-.102-2.017a.972.972 0 0 0-.444-.77L.446 14.506a.977.977 0 0 1-.34-1.263l.922-1.798a.973.973 0 0 0 0-.888l-.92-1.798a.972.972 0 0 1 .338-1.263L2.14 6.4a.972.972 0 0 0 .444-.77l.102-2.018c.025-.5.424-.9.924-.924l2.017-.102c.312-.015.6-.18.77-.444L7.494.446a.977.977 0 0 1 1.263-.34l1.798.922c.28.143.61.143.888 0"/>
        <path d="M4.236 15.324L2.98 10.637l.92-.247 2.758 2.616-.84-3.13.88-.235 1.257 4.688-.95.254-2.708-2.55.82 3.056-.88.236m4.718-1.265L7.7 9.372l3.475-.93.212.792-2.53.677.28 1.04 2.352-.63.21.788-2.352.63.342 1.276 2.618-.7.212.788-3.565.955m5.033-1.348l-2.374-4.386.968-.26 1.57 3.03-.005-3.448 1.125-.302 1.7 3.054-.16-3.467.954-.254.117 4.992-1.003.27-1.872-3.255.01 3.753-1.028.275"/>
    </g>
</symbol><symbol id="icon-new" viewBox="0 0 22 22">
    <title>
        shutterstock_240011764
    </title>
    <g fill-rule="evenodd">
        <path d="M11.444 1.028l1.798-.92a.974.974 0 0 1 1.263.338L15.6 2.142c.17.263.458.43.77.444l2.018.102c.5.025.9.424.924.924l.102 2.017c.015.312.18.6.444.77l1.696 1.095c.42.272.567.818.34 1.263l-.922 1.798a.974.974 0 0 0 0 .888l.92 1.798a.974.974 0 0 1-.338 1.263L19.858 15.6a.974.974 0 0 0-.444.77l-.102 2.018c-.025.5-.424.9-.924.924l-2.017.102a.974.974 0 0 0-.77.444l-1.095 1.697a.974.974 0 0 1-1.263.338l-1.798-.92a.974.974 0 0 0-.888 0l-1.798.92a.974.974 0 0 1-1.263-.338L6.4 19.858a.974.974 0 0 0-.77-.444l-2.018-.102a.975.975 0 0 1-.924-.924l-.102-2.017a.974.974 0 0 0-.444-.77L.446 14.506a.974.974 0 0 1-.34-1.263l.922-1.798a.974.974 0 0 0 0-.888l-.92-1.798a.974.974 0 0 1 .338-1.263L2.14 6.4a.974.974 0 0 0 .444-.77l.102-2.018c.025-.5.424-.9.924-.924l2.017-.102c.312-.015.6-.18.77-.444L7.494.446a.974.974 0 0 1 1.263-.34l1.798.922c.28.143.61.143.888 0"/>
        <path d="M4.236 15.324L2.98 10.637l.92-.247 2.758 2.616-.84-3.13.88-.235 1.257 4.688-.95.254-2.708-2.55.82 3.056-.88.236m4.718-1.265L7.7 9.372l3.475-.93.212.792-2.53.677.28 1.04 2.352-.63.21.788-2.352.63.342 1.276 2.618-.7.212.788-3.565.955m5.033-1.348l-2.374-4.386.968-.26 1.57 3.03-.005-3.448 1.125-.302 1.7 3.054-.16-3.467.954-.254.117 4.992-1.003.27-1.872-3.255.01 3.753-1.028.275"/>
    </g>
</symbol><symbol id="icon-phone" viewBox="0 0 14 14">
    <title>
        Fill 129
    </title>
    <path d="M13.176 9.06H9.882a.822.822 0 0 0-.823.822v.824c-3.296 0-5.716-2.522-5.767-5.765h.824a.82.82 0 0 0 .823-.82V.823A.819.819 0 0 0 4.12 0H.824A.823.823 0 0 0 0 .824V4.94A9.059 9.059 0 0 0 9.06 14h4.116a.823.823 0 0 0 .824-.824V9.882a.823.823 0 0 0-.824-.823zM9.882 4.94H8.235v.824h1.647v.824h-2.47v-2.47H9.06v-.824H7.41V2.47h2.47v2.47zM14 6.59h-.824V4.94H11.53V2.47h.823v1.647h.823V2.47H14v4.118z" fill-rule="evenodd"/>
</symbol><symbol id="icon-sale_icon" viewBox="0 0 16 17">
    <title>
        Shape
    </title>
    <path d="M12.836 2.02l.444 2.733 2.553 1.268-1.288 2.48 1.295 2.48-2.575 1.267-.443 2.734-2.83-.43-2.014 1.954-2.022-1.983-2.807.454-.452-2.755L.16 10.957l1.295-2.48L.167 6.022 2.72 4.74l.444-2.714 2.814.453L8 .49l2.015 1.96 2.82-.43zM6.182 4.957c-.603 0-1.09.476-1.09 1.063 0 .588.487 1.063 1.09 1.063.602 0 1.09-.475 1.09-1.062 0-.586-.488-1.062-1.09-1.062zm3.636 4.96c-.602 0-1.09.474-1.09 1.06 0 .588.488 1.064 1.09 1.064.603 0 1.09-.476 1.09-1.063 0-.588-.487-1.063-1.09-1.063zm-4.43 2.124l6.248-6.085-1.025-1-6.246 6.086 1.025 1z" fill-rule="evenodd"/>
</symbol><symbol id="icon-sale_icon_active" viewBox="0 0 16 17">
    <title>
        sale
    </title>
    <g fill-rule="evenodd">
        <ellipse cx="8" cy="8.947" rx="5.333" ry="5.368"/>
        <path d="M12.836 2.02l.444 2.733 2.553 1.268-1.288 2.48 1.295 2.48-2.575 1.267-.443 2.734-2.83-.43-2.014 1.954-2.022-1.983-2.807.454-.452-2.755L.16 10.957l1.295-2.48L.167 6.022 2.72 4.74l.444-2.714 2.814.453L8 .49l2.015 1.96 2.82-.43zM6.182 4.957c-.603 0-1.09.476-1.09 1.063 0 .588.487 1.063 1.09 1.063.602 0 1.09-.475 1.09-1.062 0-.586-.488-1.062-1.09-1.062zm3.636 4.96c-.602 0-1.09.474-1.09 1.06 0 .588.488 1.064 1.09 1.064.603 0 1.09-.476 1.09-1.063 0-.588-.487-1.063-1.09-1.063zm-4.43 2.124l6.248-6.085-1.025-1-6.246 6.086 1.025 1z"/>
    </g>
</symbol><symbol id="icon-tab" viewBox="0 0 26 46">
    <title>
        Group 28 Copy
    </title>
    <g fill-rule="evenodd">
        <path d="M12.9 9.503C14.614 4.255 20.475 0 26 0v46H1L12.9 9.503z"/>
        <path d="M12.575 9.848L.885 45.655H1.95l11.576-35.497C15.17 5.118 20.85 1 26 1V0c-5.582 0-11.647 4.396-13.425 9.848z"/>
    </g>
</symbol><symbol id="icon-tab_active" viewBox="0 0 26 46">
    <title>
        Group 28
    </title>
    <g fill-rule="evenodd">
        <path d="M12.9 9.503C14.614 4.255 20.475 0 26 0v46H1L12.9 9.503z"/>
        <path d="M12.575 9.848L.885 45.655H1.95l11.576-35.497C15.17 5.118 20.85 1 26 1V0c-5.582 0-11.647 4.396-13.425 9.848z"/>
    </g>
</symbol><symbol id="icon-user" viewBox="0 0 13 13">
    <title>
        Shape
    </title>
    <path d="M6.5 0a3.25 3.25 0 1 1 0 6.5 3.25 3.25 0 0 1 0-6.5zm0 8.125c3.59 0 6.5 1.454 6.5 3.25V13H0v-1.625c0-1.796 2.91-3.25 6.5-3.25z" fill-rule="evenodd"/>
</symbol><symbol id="icon-user_big" viewBox="0 0 34 34">
    <title>
        Shape
    </title>
    
    <g fill-rule="evenodd">
        <mask id="b">
            <use xlink:href="#a"/>
        </mask>
        <use xlink:href="#a"/>
        <path d="M17 7a6 6 0 1 1 0 12 6 6 0 0 1 0-12zm12 21v6H5v-6c0-3.315 5.37-6 12-6s12 2.685 12 6z" mask="url(#b)"/>
    </g>
</symbol></svg>