<svg width="14" height="14" viewBox="0 0 14 14" xmlns="http://www.w3.org/2000/svg"><title>Shape</title><path d="M11.13 10.773c-.182-.56-.707-.973-1.33-.973h-.7V7.7c0-.387-.313-.7-.7-.7H4.2V5.6h1.4c.387 0 .7-.313.7-.7V3.5h1.4c.773 0 1.4-.627 1.4-1.4v-.287c2.05.826 3.5 2.835 3.5 5.187 0 1.456-.56 2.78-1.47 3.773zM6.3 12.55C3.535 12.21 1.4 9.857 1.4 7c0-.434.056-.854.147-1.253L4.9 9.1v.7c0 .773.627 1.4 1.4 1.4v1.35zM7 0C3.134 0 0 3.134 0 7c0 1.857.737 3.637 2.05 4.95C3.363 13.263 5.143 14 7 14c1.857 0 3.637-.737 4.95-2.05C13.263 10.637 14 8.857 14 7c0-1.857-.737-3.637-2.05-4.95C10.637.737 8.857 0 7 0z" fill="#626F77" fill-rule="evenodd"/></svg>