<svg xmlns="http://www.w3.org/2000/svg" width="25" height="25" fill="#fff" viewBox="0 0 95.667 95.667"><path d="M39.173 72.344L78.62 49.567a1.998 1.998 0 0 0 0-3.463l-39.447-22.78a2 2 0 0 0-3 1.732V35.66H2.12a2 2 0 0 0-2 2v20.345a2 2 0 0 0 2 2h34.054V70.61a1.997 1.997 0 0 0 2 2c.345 0 .69-.09 1-.266z"/><path d="M80.775 0h-40.75a2 2 0 0 0-2 2v6a2 2 0 0 0 2 2h40.75c2.632 0 4.77 2.14 4.77 4.77v66.126c0 2.63-2.14 4.77-4.77 4.77h-40.75a2 2 0 0 0-2 2v6a2 2 0 0 0 2 2h40.75c8.146 0 14.77-6.626 14.77-14.77V14.772C95.546 6.627 88.92 0 80.776 0z"/></svg>