<svg width="14" height="14" viewBox="0 0 14 14" xmlns="http://www.w3.org/2000/svg"><title>Fill 129</title><path d="M13.176 9.06H9.882c-.455 0-.823.367-.823.822v.824c-3.296 0-5.716-2.522-5.767-5.765h.824c.455 0 .823-.366.823-.82V.823C4.94.368 4.574 0 4.12 0H.824C.368 0 0 .368 0 .824V4.94C0 9.945 4.056 14 9.06 14h4.116c.456 0 .824-.368.824-.824V9.882c0-.455-.368-.823-.824-.823zM9.882 4.94H8.235v.824h1.647v.824h-2.47v-2.47H9.06v-.824H7.41V2.47h2.47v2.47zM14 6.59h-.824V4.94H11.53V2.47h.823v1.647h.823V2.47H14v4.118z" fill="#626F77" fill-rule="evenodd"/></svg>